<?xml version="1.0" encoding="utf-8"?>
<!-- Generator: Adobe Illustrator 25.0.1, SVG Export Plug-In . SVG Version: 6.00 Build 0)  -->
<svg version="1.1" id="Calque_1" xmlns="http://www.w3.org/2000/svg" xmlns:xlink="http://www.w3.org/1999/xlink" x="0px" y="0px"
	 viewBox="0 0 426.056 147.45" style="enable-background:new 0 0 426.056 147.45;" xml:space="preserve">
<style type="text/css">
	.st0{fill:#BC2445;}
	.st1{fill:#1D1E1C;}
	.st2{fill:none;stroke:#1D1E1C;stroke-width:12.7558;stroke-miterlimit:10;}
	.st3{fill:none;stroke:#000000;stroke-width:11.3992;stroke-miterlimit:10;}
	.st4{fill:#BC2445;stroke:#BC2445;stroke-miterlimit:10;}
	.st5{fill:none;stroke:#1D1E1C;stroke-miterlimit:10;}
	.st6{fill:#FFFFFF;}
	.st7{fill:#BA4775;stroke:#BA4775;stroke-miterlimit:10;}
	.st8{fill:#BA4775;}
	.st9{fill:none;stroke:#000000;stroke-width:13;stroke-miterlimit:10;}
	.st10{fill:#1E1E1C;}
	.st11{fill:#020202;stroke:#000000;stroke-width:2;stroke-miterlimit:10;}
	.st12{stroke:#000000;stroke-miterlimit:10;}
	.st13{fill:#A83D72;}
	.st14{fill:#020202;}
</style>
<path d="M30.525,76.186c6.596,0,11.294-2.461,15.988-7.043l7.941,7.043c-5.592,6.709-13.308,11.069-24.151,11.069
	C13.195,87.255,0,74.845,0,56.507c0-16.995,11.963-30.86,28.849-30.86c18.784,0,28.289,14.759,28.289,31.867
	c0,1.229-0.113,2.346-0.225,3.688H13.53C15.097,70.819,21.803,76.186,30.525,76.186z M43.721,52.257
	c-0.894-8.72-6.039-15.541-14.984-15.541c-8.273,0-14.09,6.374-15.319,15.541H43.721z"/>
<path d="M140.919,25.647c12.858,0,20.683,8.16,20.683,22.585v37.681h-13.527V52.37c0-9.392-4.363-14.425-11.966-14.425
	c-7.378,0-12.636,5.145-12.636,14.647v33.321h-13.527V52.257c0-9.167-4.472-14.312-11.963-14.312
	c-7.494,0-12.636,5.592-12.636,14.759v33.209h-13.53V26.876h13.53v8.945c3.8-5.254,8.945-10.174,18.002-10.174
	c8.495,0,14.422,4.138,17.552,10.399C125.713,29.785,131.974,25.647,140.919,25.647z"/>
<path class="st13" d="M303.049,26.876h14.199l-24.151,59.484h-12.188l-24.261-59.484h14.534l15.879,43.383L303.049,26.876z"/>
<path class="st13" d="M379.008,85.913h-13.53V26.876h13.53v9.17c3.8-5.592,9.28-10.399,18.45-10.399
	c13.305,0,21.018,8.945,21.018,22.697v37.569h-13.527V52.37c0-9.167-4.585-14.425-12.636-14.425c-7.828,0-13.305,5.48-13.305,14.647
	V85.913z"/>
<g>
	<path class="st10" d="M20.092,136.213H4.339v-28.609c0-0.315-0.095-0.56-0.282-0.729c-0.182-0.162-0.422-0.245-0.713-0.245H2.568
		c-0.311,0-0.56,0.088-0.739,0.261c-0.184,0.175-0.277,0.415-0.277,0.714v30.379c0,0.315,0.095,0.561,0.281,0.729
		c0.18,0.162,0.42,0.245,0.714,0.245h17.545c0.297,0,0.539-0.088,0.718-0.26c0.184-0.175,0.277-0.415,0.277-0.715v-0.773
		c0-0.33-0.095-0.582-0.281-0.751C20.626,136.296,20.386,136.213,20.092,136.213z"/>
	<path class="st10" d="M41.993,120.193c-0.947-0.976-2.065-1.749-3.321-2.301c-1.26-0.554-2.621-0.835-4.047-0.835
		c-1.482,0-2.895,0.296-4.199,0.878c-1.299,0.58-2.452,1.387-3.427,2.398c-0.975,1.009-1.755,2.209-2.32,3.565
		c-0.566,1.359-0.854,2.828-0.854,4.366s0.295,3.005,0.876,4.358c0.581,1.35,1.388,2.542,2.398,3.545
		c1.009,1.003,2.209,1.806,3.565,2.386c1.358,0.581,2.828,0.876,4.368,0.876c1.234,0,2.398-0.181,3.46-0.537
		c1.061-0.355,2.061-0.853,2.977-1.478c0.208-0.148,0.42-0.319,0.631-0.509c0.224-0.201,0.406-0.419,0.544-0.648l0.028-0.047v-0.056
		c0-0.198-0.045-0.411-0.133-0.631c-0.081-0.21-0.186-0.408-0.312-0.592c-0.129-0.183-0.258-0.331-0.397-0.454
		c-0.167-0.146-0.327-0.219-0.522-0.219c-0.004,0-0.008,0-0.013,0c-0.188,0.034-0.412,0.148-0.664,0.338
		c-0.229,0.173-0.438,0.331-0.622,0.473c-0.71,0.529-1.5,0.935-2.35,1.206c-1.854,0.595-3.979,0.545-5.767-0.178
		c-0.97-0.391-1.839-0.931-2.585-1.607c-0.748-0.679-1.362-1.491-1.825-2.414c-0.436-0.863-0.707-1.803-0.81-2.795h16.766
		c0.446,0,0.824-0.076,1.123-0.226c0.344-0.172,0.519-0.532,0.519-1.071c0-1.537-0.28-2.991-0.834-4.323
		C43.694,122.332,42.935,121.165,41.993,120.193z M42.289,126.753H26.691c0.165-0.919,0.47-1.791,0.906-2.596
		c0.476-0.872,1.072-1.639,1.775-2.28c0.705-0.641,1.514-1.149,2.403-1.511c1.773-0.722,3.871-0.726,5.641,0.01
		c0.884,0.369,1.682,0.881,2.371,1.521c0.688,0.639,1.261,1.404,1.699,2.275C41.892,124.979,42.162,125.846,42.289,126.753z"/>
	<path class="st10" d="M81.082,120.131c-0.933-1.005-2.035-1.808-3.276-2.388c-1.246-0.584-2.603-0.88-4.03-0.88
		c-1.277,0-2.391,0.155-3.31,0.462c-0.918,0.307-1.705,0.685-2.339,1.121c-0.639,0.44-1.152,0.906-1.528,1.386
		c-0.177,0.225-0.334,0.435-0.471,0.628v-2.021c0-0.697-0.407-1.082-1.146-1.082h-0.645c-0.712,0-1.104,0.385-1.104,1.082v27.821
		c0,0.313,0.105,0.569,0.313,0.76c0.201,0.185,0.481,0.278,0.834,0.278h0.623c0.352,0,0.63-0.095,0.825-0.281
		c0.198-0.188,0.299-0.442,0.299-0.757v-11.389c0.257,0.44,0.549,0.861,0.871,1.259c0.496,0.613,1.081,1.158,1.738,1.618
		c0.662,0.462,1.423,0.829,2.26,1.091c0.84,0.263,1.774,0.396,2.778,0.396c1.43,0,2.785-0.296,4.03-0.878
		c1.241-0.581,2.344-1.389,3.277-2.4c0.929-1.011,1.669-2.208,2.199-3.557c0.53-1.351,0.799-2.814,0.799-4.352
		c0-1.536-0.269-3.004-0.799-4.362C82.752,122.333,82.012,121.135,81.082,120.131z M81.186,128.029c0,1.148-0.201,2.246-0.6,3.261
		c-0.397,1.019-0.948,1.92-1.637,2.679c-0.692,0.76-1.507,1.366-2.423,1.803c-1.828,0.873-4.02,0.873-5.848,0
		c-0.919-0.438-1.737-1.045-2.433-1.803c-0.698-0.761-1.256-1.662-1.659-2.681c-0.405-1.019-0.61-2.115-0.61-3.259
		c0-1.143,0.205-2.239,0.61-3.259c0.403-1.018,0.961-1.919,1.659-2.68c0.695-0.757,1.514-1.364,2.433-1.804
		c0.914-0.437,1.897-0.657,2.924-0.657s2.01,0.221,2.924,0.657c0.916,0.438,1.731,1.044,2.422,1.804
		c0.689,0.759,1.24,1.66,1.638,2.68C80.985,125.784,81.186,126.88,81.186,128.029z"/>
	<path class="st10" d="M91.603,107.582c-0.032-0.283-0.125-0.512-0.275-0.681c-0.162-0.18-0.403-0.271-0.719-0.271h-0.666
		c-0.294,0-0.539,0.087-0.726,0.257c-0.193,0.174-0.291,0.415-0.291,0.718v30.379c0,0.628,0.369,0.975,1.038,0.975h0.752
		c0.642,0,0.995-0.347,0.995-0.975v-27.949c0-0.434-0.01-0.859-0.031-1.279C91.658,108.337,91.633,107.948,91.603,107.582z"/>
	<path class="st10" d="M116.517,117.488h-0.623c-0.348,0-0.608,0.1-0.776,0.296c-0.159,0.185-0.247,0.446-0.264,0.78l-0.062,2.679
		c-0.195-0.398-0.436-0.777-0.72-1.133c-0.501-0.624-1.11-1.17-1.812-1.623c-0.702-0.453-1.498-0.809-2.364-1.056
		c-0.867-0.248-1.794-0.374-2.754-0.374c-1.498,0-2.907,0.296-4.188,0.879c-1.281,0.582-2.406,1.394-3.344,2.411
		c-0.937,1.018-1.681,2.222-2.211,3.578c-0.53,1.357-0.799,2.825-0.799,4.361c0,1.538,0.273,3.003,0.812,4.354
		c0.534,1.346,1.281,2.539,2.221,3.545c0.938,1.003,2.062,1.807,3.343,2.389c1.279,0.583,2.682,0.878,4.167,0.878
		c0.948,0,1.855-0.118,2.697-0.352c0.846-0.231,1.627-0.572,2.323-1.013c0.697-0.44,1.311-0.987,1.822-1.624
		c0.304-0.376,0.565-0.788,0.783-1.232v2.709c0,0.684,0.377,1.061,1.062,1.061h0.688c0.32,0,0.581-0.085,0.774-0.253
		c0.203-0.174,0.307-0.417,0.307-0.722v-19.457c0-0.344-0.104-0.613-0.312-0.804C117.083,117.582,116.825,117.488,116.517,117.488z
		 M107.142,119.866c1.112,0,2.146,0.225,3.074,0.669c0.931,0.443,1.74,1.056,2.408,1.821c0.668,0.764,1.194,1.668,1.564,2.688
		c0.37,1.019,0.558,2.116,0.558,3.264c0,1.161-0.19,2.262-0.567,3.274c-0.377,1.012-0.906,1.901-1.574,2.645
		c-0.666,0.743-1.477,1.338-2.408,1.769c-0.929,0.431-1.956,0.648-3.055,0.648c-1.11,0-2.148-0.222-3.086-0.659
		c-0.937-0.437-1.759-1.039-2.441-1.792c-0.683-0.752-1.223-1.646-1.606-2.655c-0.384-1.011-0.578-2.105-0.578-3.251
		c0-1.145,0.194-2.242,0.579-3.262c0.384-1.019,0.921-1.92,1.597-2.679s1.493-1.368,2.431-1.812
		C104.973,120.09,106.017,119.866,107.142,119.866z"/>
	<path class="st10" d="M125.16,109.295c-0.568,0-1.061,0.204-1.464,0.607s-0.607,0.896-0.607,1.464s0.204,1.061,0.607,1.464
		c0.402,0.402,0.896,0.606,1.464,0.606s1.062-0.204,1.464-0.606c0.403-0.403,0.607-0.896,0.607-1.464s-0.204-1.061-0.607-1.464
		S125.728,109.295,125.16,109.295z"/>
	<path class="st10" d="M125.525,117.488h-0.773c-0.297,0-0.542,0.091-0.729,0.271c-0.19,0.182-0.287,0.425-0.287,0.725v19.5
		c0,0.628,0.369,0.975,1.038,0.975h0.752c0.642,0,0.995-0.347,0.995-0.975v-19.5c0-0.297-0.087-0.538-0.259-0.718
		C126.087,117.582,125.839,117.488,125.525,117.488z"/>
	<path class="st10" d="M144.301,129.053c-0.599-0.548-1.334-1.039-2.185-1.462c-0.847-0.419-1.81-0.777-2.865-1.067l-0.645-0.172
		c-0.421-0.111-0.873-0.262-1.345-0.444c-0.467-0.181-0.897-0.409-1.28-0.677c-0.377-0.262-0.696-0.584-0.948-0.957
		c-0.244-0.362-0.362-0.772-0.362-1.254c0-0.498,0.098-0.958,0.291-1.366s0.469-0.765,0.819-1.062
		c0.354-0.298,0.779-0.531,1.267-0.694c0.494-0.164,1.045-0.247,1.636-0.247c0.947,0,1.803,0.229,2.54,0.68
		c0.636,0.389,1.166,0.878,1.581,1.457h-0.049l0.366,0.488c0.117,0.164,0.215,0.289,0.289,0.378
		c0.207,0.244,0.612,0.302,1.115-0.021l0.758-0.454c0.142-0.089,0.252-0.204,0.328-0.344c0.072-0.138,0.109-0.274,0.109-0.406
		c0-0.139-0.04-0.305-0.134-0.529c-0.763-1.332-1.748-2.327-2.93-2.958c-1.179-0.629-2.516-0.948-3.975-0.948
		c-1.008,0-1.938,0.146-2.763,0.431c-0.831,0.287-1.549,0.702-2.134,1.234c-0.586,0.534-1.047,1.179-1.37,1.916
		c-0.325,0.736-0.49,1.566-0.49,2.468c0,0.778,0.189,1.506,0.563,2.162c0.366,0.646,0.854,1.232,1.452,1.741
		c0.591,0.504,1.271,0.943,2.021,1.307c0.744,0.362,1.504,0.656,2.266,0.875c0.591,0.142,1.206,0.327,1.828,0.552
		c0.614,0.225,1.179,0.504,1.678,0.829c0.493,0.323,0.902,0.711,1.216,1.152c0.304,0.431,0.457,0.938,0.457,1.508
		c0,0.613-0.154,1.146-0.458,1.584c-0.313,0.449-0.714,0.824-1.188,1.116c-0.48,0.295-1.012,0.519-1.578,0.664
		c-0.567,0.146-1.108,0.22-1.606,0.22c-0.367,0-0.78-0.059-1.229-0.176c-0.449-0.118-0.897-0.297-1.331-0.531
		c-0.434-0.233-0.84-0.526-1.205-0.873c-0.359-0.339-0.653-0.732-0.873-1.169l-0.111-0.223c-0.084-0.15-0.186-0.276-0.302-0.377
		c-0.137-0.118-0.304-0.178-0.496-0.178c-0.108,0-0.234,0.024-0.404,0.082l-0.816,0.366c-0.189,0.086-0.345,0.214-0.46,0.381
		c-0.116,0.169-0.176,0.334-0.176,0.489c0,0.112,0.027,0.232,0.074,0.341c0.237,0.739,0.602,1.402,1.081,1.97
		c0.479,0.567,1.054,1.046,1.709,1.422c0.652,0.374,1.371,0.659,2.138,0.848c0.763,0.189,1.57,0.285,2.401,0.285
		c1.002,0,1.973-0.137,2.885-0.406c0.916-0.271,1.732-0.676,2.428-1.204c0.7-0.53,1.266-1.195,1.681-1.979
		c0.415-0.786,0.625-1.692,0.625-2.694c0-0.784-0.166-1.529-0.492-2.216C145.375,130.229,144.903,129.605,144.301,129.053z"/>
	<path class="st10" d="M152.615,109.295c-0.568,0-1.061,0.204-1.464,0.607s-0.607,0.896-0.607,1.464s0.204,1.061,0.607,1.464
		c0.402,0.402,0.896,0.606,1.464,0.606s1.062-0.204,1.464-0.606c0.403-0.403,0.607-0.896,0.607-1.464s-0.204-1.061-0.607-1.464
		S153.183,109.295,152.615,109.295z"/>
	<path class="st10" d="M152.98,117.488h-0.773c-0.297,0-0.542,0.091-0.729,0.271c-0.19,0.182-0.287,0.425-0.287,0.725v19.5
		c0,0.628,0.369,0.975,1.038,0.975h0.752c0.642,0,0.995-0.347,0.995-0.975v-19.5c0-0.297-0.087-0.538-0.259-0.718
		C153.542,117.582,153.294,117.488,152.98,117.488z"/>
	<path class="st10" d="M172.774,118.462c-0.328-0.245-0.738-0.467-1.218-0.659c-0.473-0.189-0.986-0.345-1.526-0.462
		c-0.544-0.117-1.043-0.177-1.483-0.177c-0.691,0-1.351,0.09-1.958,0.267c-0.609,0.176-1.17,0.426-1.666,0.744
		c-0.495,0.317-0.937,0.707-1.312,1.158c-0.186,0.222-0.351,0.454-0.496,0.697v-1.376c0-0.767-0.445-1.188-1.255-1.188h-0.473
		c-0.738,0-1.146,0.422-1.146,1.188v19.328c0,0.628,0.361,0.975,1.017,0.975h0.883c0.642,0,0.995-0.347,0.995-0.975l-0.021-11.631
		c0-0.808,0.137-1.599,0.408-2.352c0.271-0.758,0.644-1.44,1.107-2.028c0.462-0.587,1.021-1.062,1.66-1.411
		c1.07-0.588,2.426-0.713,3.688-0.216c0.533,0.212,1.007,0.445,1.402,0.69c0.114,0.077,0.218,0.119,0.313,0.129
		c0.147,0.018,0.428,0.074,0.747-0.21c0.143-0.126,0.279-0.282,0.408-0.464c0.132-0.188,0.243-0.381,0.33-0.569
		c0.098-0.211,0.147-0.405,0.147-0.578C173.327,119.035,173.14,118.738,172.774,118.462z"/>
	<path class="st10" d="M209.246,106.652h-0.625c-0.352,0-0.63,0.095-0.825,0.281c-0.198,0.188-0.299,0.442-0.299,0.757v13.731
		c-0.256-0.438-0.547-0.859-0.869-1.258c-0.496-0.612-1.082-1.157-1.74-1.619c-0.658-0.461-1.418-0.827-2.258-1.09
		c-0.839-0.264-1.774-0.397-2.78-0.397c-1.426,0-2.782,0.296-4.03,0.88c-1.244,0.582-2.346,1.39-3.275,2.399
		c-0.931,1.01-1.671,2.206-2.201,3.556c-0.53,1.351-0.799,2.814-0.799,4.352c0,1.552,0.269,3.023,0.799,4.374
		c0.53,1.349,1.271,2.542,2.202,3.545c0.928,1.003,2.03,1.807,3.274,2.39c1.247,0.582,2.603,0.878,4.03,0.878
		c1.277,0,2.391-0.155,3.31-0.462c0.919-0.306,1.706-0.683,2.341-1.121c0.637-0.439,1.149-0.901,1.525-1.373
		c0.18-0.226,0.337-0.433,0.472-0.625v2.005c0,0.697,0.407,1.082,1.146,1.082h0.646c0.711,0,1.103-0.385,1.103-1.082V107.69
		c0-0.316-0.105-0.572-0.313-0.76C209.877,106.746,209.597,106.652,209.246,106.652z M207.647,128.265
		c0,1.146-0.205,2.243-0.608,3.259c-0.405,1.02-0.964,1.921-1.661,2.681c-0.697,0.759-1.516,1.366-2.433,1.803
		c-1.83,0.873-4.018,0.873-5.848,0c-0.918-0.438-1.732-1.045-2.421-1.803c-0.689-0.758-1.241-1.659-1.639-2.679
		c-0.398-1.02-0.6-2.117-0.6-3.261c0-1.143,0.201-2.239,0.6-3.26c0.397-1.02,0.949-1.921,1.64-2.679
		c0.688-0.758,1.502-1.364,2.42-1.803c0.913-0.437,1.897-0.658,2.924-0.658s2.011,0.222,2.924,0.658
		c0.917,0.437,1.735,1.044,2.433,1.803c0.697,0.76,1.256,1.661,1.661,2.681C207.442,126.024,207.647,127.12,207.647,128.265z"/>
	<path class="st10" d="M234.2,120.193c-0.944-0.974-2.062-1.748-3.321-2.301c-1.258-0.554-2.619-0.835-4.047-0.835
		c-1.482,0-2.895,0.296-4.199,0.878c-1.302,0.582-2.454,1.39-3.425,2.398c-0.975,1.009-1.755,2.209-2.32,3.565
		c-0.567,1.362-0.855,2.831-0.855,4.366c0,1.54,0.296,3.007,0.878,4.358c0.578,1.348,1.385,2.541,2.396,3.545
		c1.009,1.003,2.209,1.806,3.566,2.386c1.359,0.581,2.829,0.876,4.369,0.876c1.232,0,2.396-0.181,3.46-0.537
		c1.062-0.357,2.062-0.854,2.977-1.478c0.2-0.144,0.406-0.31,0.631-0.509c0.221-0.198,0.402-0.417,0.542-0.648l0.028-0.047v-0.056
		c0-0.196-0.044-0.409-0.132-0.633c-0.088-0.221-0.19-0.414-0.312-0.59c-0.129-0.183-0.258-0.331-0.396-0.453
		c-0.166-0.147-0.321-0.202-0.533-0.22c-0.19,0.034-0.408,0.146-0.664,0.338c-0.196,0.146-0.374,0.281-0.539,0.406l-0.086,0.066
		c-0.709,0.528-1.499,0.935-2.348,1.206c-0.851,0.272-1.749,0.41-2.67,0.41c-1.087,0-2.129-0.197-3.097-0.588
		c-0.973-0.392-1.843-0.933-2.586-1.607c-0.745-0.675-1.359-1.487-1.826-2.414c-0.436-0.863-0.707-1.803-0.81-2.795h16.768
		c0.447,0,0.824-0.076,1.121-0.226c0.344-0.172,0.519-0.532,0.519-1.071c0-1.54-0.28-2.994-0.832-4.323
		C235.904,122.335,235.145,121.167,234.2,120.193z M229.626,120.377c0.884,0.369,1.682,0.881,2.371,1.521
		c0.687,0.639,1.259,1.404,1.699,2.275c0.406,0.808,0.675,1.674,0.8,2.58h-15.598c0.165-0.92,0.471-1.792,0.908-2.596
		c0.474-0.872,1.07-1.639,1.775-2.28c0.701-0.639,1.509-1.147,2.401-1.511C225.765,119.644,227.86,119.642,229.626,120.377z"/>
	<path class="st10" d="M273.289,120.131c-0.929-1.002-2.03-1.806-3.274-2.389c-1.248-0.583-2.604-0.879-4.03-0.879
		c-1.277,0-2.391,0.155-3.31,0.462s-1.706,0.684-2.341,1.122c-0.639,0.44-1.151,0.906-1.526,1.385
		c-0.18,0.229-0.336,0.437-0.471,0.626v-2.019c0-0.697-0.407-1.082-1.146-1.082h-0.646c-0.711,0-1.103,0.385-1.103,1.082v27.821
		c0,0.316,0.105,0.572,0.313,0.76c0.201,0.185,0.481,0.278,0.832,0.278h0.625c0.352,0,0.63-0.095,0.826-0.281
		c0.197-0.19,0.298-0.445,0.298-0.757v-11.388c0.257,0.438,0.547,0.859,0.869,1.258c0.499,0.614,1.084,1.159,1.74,1.618
		c0.659,0.462,1.419,0.829,2.258,1.091c0.84,0.263,1.775,0.396,2.78,0.396c1.428,0,2.783-0.296,4.03-0.879
		c1.244-0.582,2.346-1.39,3.275-2.399s1.671-2.206,2.201-3.557s0.799-2.814,0.799-4.352c0-1.536-0.269-3.004-0.799-4.362
		C274.961,122.331,274.22,121.134,273.289,120.131z M273.395,128.029c0,1.144-0.201,2.241-0.6,3.261
		c-0.397,1.02-0.949,1.921-1.64,2.679c-0.688,0.758-1.502,1.364-2.42,1.803c-1.833,0.874-4.021,0.872-5.848,0
		c-0.917-0.437-1.735-1.044-2.433-1.803c-0.697-0.76-1.256-1.661-1.661-2.681c-0.403-1.016-0.608-2.112-0.608-3.259
		s0.205-2.242,0.608-3.258c0.405-1.02,0.964-1.921,1.661-2.681c0.696-0.759,1.515-1.366,2.433-1.804
		c0.914-0.437,1.897-0.657,2.924-0.657c1.024,0,2.008,0.221,2.924,0.657c0.919,0.439,1.733,1.046,2.421,1.804
		c0.689,0.758,1.241,1.659,1.639,2.679C273.194,125.789,273.395,126.885,273.395,128.029z"/>
	<path class="st10" d="M299.459,117.488h-0.623c-0.348,0-0.608,0.1-0.776,0.296c-0.159,0.185-0.247,0.446-0.264,0.78l-0.062,2.679
		c-0.195-0.398-0.436-0.777-0.72-1.133c-0.501-0.624-1.11-1.17-1.812-1.623c-0.702-0.453-1.498-0.809-2.364-1.056
		c-0.867-0.248-1.794-0.374-2.754-0.374c-1.498,0-2.907,0.296-4.188,0.879c-1.281,0.582-2.406,1.394-3.344,2.411
		c-0.937,1.018-1.681,2.222-2.211,3.578c-0.53,1.357-0.799,2.825-0.799,4.361c0,1.538,0.273,3.003,0.812,4.354
		c0.534,1.346,1.281,2.539,2.221,3.545c0.938,1.003,2.062,1.807,3.343,2.389c1.279,0.583,2.682,0.878,4.167,0.878
		c0.948,0,1.855-0.118,2.697-0.352c0.846-0.231,1.627-0.572,2.323-1.013c0.697-0.44,1.311-0.987,1.822-1.624
		c0.304-0.376,0.565-0.788,0.783-1.232v2.709c0,0.684,0.377,1.061,1.062,1.061h0.688c0.32,0,0.581-0.085,0.774-0.253
		c0.203-0.174,0.307-0.417,0.307-0.722v-19.457c0-0.344-0.104-0.613-0.312-0.804C300.024,117.582,299.766,117.488,299.459,117.488z
		 M290.084,119.866c1.112,0,2.146,0.225,3.074,0.669c0.931,0.443,1.74,1.056,2.408,1.821c0.668,0.764,1.194,1.668,1.564,2.688
		c0.37,1.019,0.558,2.116,0.558,3.264c0,1.161-0.19,2.262-0.567,3.274c-0.377,1.012-0.906,1.901-1.574,2.645
		c-0.666,0.743-1.477,1.338-2.408,1.769c-0.929,0.431-1.956,0.648-3.055,0.648c-1.11,0-2.148-0.222-3.086-0.659
		c-0.937-0.437-1.759-1.039-2.441-1.792c-0.683-0.752-1.223-1.646-1.606-2.655c-0.384-1.011-0.578-2.105-0.578-3.251
		c0-1.145,0.194-2.242,0.579-3.262c0.384-1.019,0.921-1.92,1.597-2.679s1.493-1.368,2.431-1.812
		C287.914,120.09,288.959,119.866,290.084,119.866z"/>
	<path class="st10" d="M319.036,118.462c-0.324-0.243-0.733-0.465-1.218-0.659c-0.469-0.188-0.982-0.344-1.526-0.462
		c-0.552-0.119-1.037-0.177-1.483-0.177c-0.689,0-1.349,0.09-1.958,0.267c-0.612,0.178-1.172,0.428-1.664,0.744
		c-0.498,0.319-0.94,0.709-1.314,1.158c-0.186,0.222-0.351,0.454-0.496,0.697v-1.376c0-0.767-0.445-1.188-1.253-1.188h-0.473
		c-0.74,0-1.147,0.422-1.147,1.188v19.328c0,0.628,0.362,0.975,1.019,0.975h0.881c0.642,0,0.995-0.347,0.995-0.975l-0.021-11.631
		c0-0.803,0.137-1.594,0.408-2.352c0.27-0.753,0.642-1.436,1.107-2.028c0.461-0.585,1.02-1.06,1.66-1.411
		c1.071-0.588,2.424-0.713,3.689-0.216c0.532,0.212,1.007,0.445,1.403,0.69c0.114,0.077,0.218,0.119,0.312,0.129
		c0.146,0.018,0.43,0.074,0.749-0.21c0.139-0.123,0.271-0.274,0.408-0.464c0.128-0.184,0.238-0.375,0.328-0.569
		c0.098-0.211,0.147-0.405,0.147-0.578C319.589,119.035,319.402,118.738,319.036,118.462z"/>
	<path class="st10" d="M331.9,117.466h-3.519v-6.143c0-0.292-0.06-0.543-0.178-0.746c-0.094-0.162-0.3-0.355-0.773-0.355
		c-0.003,0-0.005,0-0.007,0l-1.079,0.151c-0.566,0.086-0.879,0.424-0.879,0.95v6.143h-2.767c-0.339,0-0.589,0.072-0.763,0.219
		c-0.183,0.152-0.275,0.406-0.275,0.755v0.796c0,0.349,0.093,0.603,0.274,0.755c0.175,0.146,0.425,0.219,0.764,0.219h2.767v13.625
		c0,1.194,0.139,2.155,0.412,2.855c0.275,0.711,0.663,1.258,1.152,1.626c0.482,0.362,1.062,0.596,1.724,0.693
		c0.64,0.094,1.337,0.142,2.072,0.142h0.645c0.321,0,0.599-0.067,0.822-0.2c0.259-0.152,0.39-0.435,0.39-0.838v-0.71
		c0-0.352-0.117-0.618-0.349-0.793c-0.215-0.163-0.469-0.246-0.756-0.246l-0.776,0.001c-0.45-0.042-0.837-0.096-1.151-0.158
		c-0.282-0.057-0.519-0.179-0.704-0.364c-0.188-0.188-0.329-0.478-0.42-0.861c-0.096-0.407-0.145-0.989-0.145-1.728V120.21h3.519
		c0.307,0,0.557-0.081,0.743-0.242c0.197-0.168,0.297-0.429,0.297-0.774v-0.71c0-0.346-0.1-0.606-0.297-0.774
		C332.457,117.547,332.207,117.466,331.9,117.466z"/>
	<path class="st10" d="M355.658,117.488h-0.623c-0.346,0-0.606,0.1-0.774,0.296c-0.159,0.185-0.247,0.446-0.264,0.78l-0.062,2.679
		c-0.195-0.398-0.437-0.777-0.722-1.133c-0.498-0.623-1.106-1.169-1.81-1.623c-0.707-0.454-1.503-0.81-2.366-1.056
		c-0.865-0.248-1.791-0.374-2.752-0.374c-1.498,0-2.907,0.296-4.19,0.879c-1.279,0.581-2.403,1.393-3.341,2.411
		c-0.937,1.014-1.681,2.218-2.212,3.578c-0.53,1.357-0.799,2.825-0.799,4.361s0.272,3.001,0.81,4.354
		c0.538,1.352,1.286,2.544,2.223,3.545c0.938,1.004,2.062,1.809,3.341,2.389c1.281,0.583,2.685,0.878,4.169,0.878
		c0.945,0,1.854-0.118,2.697-0.352c0.845-0.232,1.626-0.573,2.321-1.013c0.695-0.438,1.309-0.984,1.822-1.624
		c0.305-0.377,0.567-0.79,0.785-1.233v2.71c0,0.684,0.376,1.061,1.06,1.061h0.688c0.321,0,0.583-0.085,0.777-0.253
		c0.203-0.177,0.306-0.419,0.306-0.722v-19.457c0-0.343-0.105-0.612-0.313-0.803C356.226,117.582,355.968,117.488,355.658,117.488z
		 M346.285,119.866c1.11,0,2.145,0.225,3.074,0.669c0.931,0.443,1.74,1.056,2.408,1.821c0.666,0.764,1.192,1.668,1.563,2.688
		c0.371,1.023,0.559,2.121,0.559,3.264c0,1.162-0.191,2.264-0.569,3.274c-0.376,1.011-0.905,1.9-1.572,2.645
		c-0.666,0.743-1.477,1.338-2.408,1.769c-0.931,0.431-1.958,0.648-3.055,0.648c-1.111,0-2.15-0.222-3.087-0.659
		c-0.94-0.438-1.761-1.041-2.44-1.792c-0.685-0.752-1.225-1.646-1.606-2.655c-0.384-1.011-0.578-2.105-0.578-3.251
		c0-1.145,0.194-2.242,0.579-3.262c0.382-1.018,0.918-1.918,1.595-2.679c0.674-0.758,1.492-1.367,2.431-1.812
		C344.113,120.09,345.158,119.866,346.285,119.866z"/>
	<path class="st10" d="M381.416,117.488h-0.623c-0.348,0-0.608,0.1-0.776,0.296c-0.159,0.185-0.245,0.438-0.264,0.78l-0.062,2.693
		c-0.205-0.405-0.461-0.791-0.767-1.151c-0.526-0.622-1.161-1.167-1.885-1.621c-0.728-0.453-1.545-0.809-2.429-1.054
		c-0.887-0.248-1.823-0.374-2.784-0.374c-1.498,0-2.907,0.296-4.188,0.879c-1.281,0.582-2.406,1.394-3.344,2.411
		c-0.937,1.018-1.681,2.222-2.211,3.578c-0.53,1.357-0.799,2.825-0.799,4.361c0,1.538,0.273,3.003,0.812,4.354
		c0.534,1.346,1.281,2.539,2.221,3.545c0.938,1.003,2.062,1.807,3.343,2.389c1.279,0.583,2.682,0.878,4.167,0.878
		c0.917,0,1.81-0.11,2.651-0.329c0.845-0.218,1.636-0.539,2.352-0.956c0.717-0.416,1.353-0.94,1.888-1.558
		c0.334-0.383,0.623-0.802,0.864-1.251v1.228c0,1.298-0.219,2.457-0.649,3.446c-0.433,0.99-1.014,1.824-1.726,2.48
		c-0.716,0.66-1.546,1.164-2.469,1.496c-1.479,0.534-3.05,0.699-4.63,0.254c-0.594-0.168-1.167-0.374-1.708-0.615
		c-0.165-0.069-0.316-0.142-0.454-0.217c-0.162-0.089-0.312-0.147-0.461-0.182c-0.158-0.035-0.311-0.034-0.451,0.002
		c-0.155,0.043-0.292,0.15-0.407,0.323c-0.026,0.041-0.088,0.126-0.186,0.258c-0.101,0.138-0.206,0.286-0.314,0.446
		c-0.11,0.161-0.21,0.315-0.297,0.461c-0.108,0.179-0.158,0.313-0.158,0.426c0,0.145,0.042,0.274,0.122,0.38h-0.183l0.68,0.375
		c0.84,0.464,1.721,0.838,2.618,1.113c0.902,0.276,1.935,0.417,3.068,0.417c1.364,0,2.696-0.231,3.961-0.688
		c1.27-0.461,2.399-1.159,3.358-2.076c0.961-0.917,1.739-2.086,2.314-3.476c0.574-1.387,0.865-3.037,0.864-4.889
		c0.015-0.19,0.022-0.368,0.022-0.53v-17.222c0-0.344-0.104-0.613-0.312-0.804C381.981,117.582,381.723,117.488,381.416,117.488z
		 M371.826,119.866c1.111,0,2.157,0.226,3.108,0.67c0.951,0.442,1.786,1.057,2.483,1.823c0.699,0.768,1.25,1.673,1.64,2.688
		c0.39,1.021,0.588,2.118,0.588,3.261c0,1.161-0.201,2.262-0.597,3.271c-0.4,1.013-0.955,1.902-1.65,2.646
		c-0.696,0.745-1.531,1.341-2.482,1.771c-0.953,0.432-1.992,0.649-3.09,0.649c-1.11,0-2.148-0.222-3.086-0.659
		c-0.937-0.437-1.759-1.039-2.441-1.792c-0.683-0.752-1.223-1.646-1.606-2.655c-0.384-1.011-0.578-2.105-0.578-3.251
		c0-1.145,0.194-2.242,0.579-3.262c0.384-1.019,0.921-1.92,1.597-2.679s1.493-1.368,2.431-1.812
		C369.656,120.09,370.701,119.866,371.826,119.866z"/>
	<path class="st10" d="M405.1,120.193c-0.944-0.974-2.062-1.748-3.321-2.301c-1.258-0.554-2.619-0.835-4.047-0.835
		c-1.482,0-2.895,0.296-4.199,0.878c-1.302,0.582-2.454,1.39-3.425,2.398c-0.975,1.009-1.755,2.209-2.32,3.565
		c-0.567,1.362-0.855,2.831-0.855,4.366c0,1.54,0.296,3.007,0.878,4.358c0.578,1.348,1.385,2.541,2.396,3.545
		c1.009,1.003,2.209,1.806,3.566,2.386c1.359,0.581,2.829,0.876,4.369,0.876c1.232,0,2.396-0.181,3.46-0.537
		c1.062-0.357,2.062-0.854,2.977-1.478c0.2-0.144,0.406-0.31,0.631-0.509c0.221-0.198,0.402-0.417,0.542-0.648l0.028-0.047v-0.056
		c0-0.196-0.044-0.409-0.132-0.633c-0.088-0.221-0.19-0.414-0.312-0.59c-0.129-0.183-0.258-0.331-0.396-0.453
		c-0.166-0.147-0.337-0.202-0.533-0.22c-0.19,0.034-0.408,0.146-0.664,0.338c-0.196,0.146-0.374,0.281-0.539,0.406l-0.086,0.066
		c-0.709,0.528-1.499,0.935-2.348,1.206c-0.851,0.272-1.749,0.41-2.67,0.41c-1.087,0-2.129-0.197-3.097-0.588
		c-0.973-0.392-1.843-0.933-2.586-1.607c-0.745-0.675-1.359-1.487-1.826-2.414c-0.436-0.863-0.707-1.803-0.81-2.795h16.768
		c0.447,0,0.824-0.076,1.121-0.226c0.344-0.172,0.519-0.532,0.519-1.071c0-1.54-0.28-2.994-0.832-4.323
		C406.805,122.335,406.046,121.167,405.1,120.193z M400.526,120.377c0.884,0.369,1.682,0.881,2.371,1.521
		c0.687,0.639,1.259,1.404,1.699,2.275c0.406,0.808,0.675,1.674,0.8,2.58h-15.598c0.165-0.92,0.471-1.792,0.908-2.596
		c0.474-0.872,1.07-1.639,1.775-2.28c0.701-0.639,1.509-1.147,2.401-1.511C396.665,119.644,398.761,119.642,400.526,120.377z"/>
	<path class="st10" d="M425.503,118.462c-0.328-0.245-0.738-0.467-1.218-0.659c-0.473-0.189-0.986-0.345-1.526-0.462
		c-0.544-0.117-1.043-0.177-1.483-0.177c-0.691,0-1.351,0.09-1.958,0.267c-0.609,0.176-1.17,0.426-1.666,0.744
		c-0.495,0.317-0.937,0.707-1.312,1.158c-0.186,0.222-0.351,0.454-0.496,0.697v-1.376c0-0.767-0.445-1.188-1.255-1.188h-0.473
		c-0.738,0-1.146,0.422-1.146,1.188v19.328c0,0.628,0.361,0.975,1.017,0.975h0.883c0.642,0,0.995-0.347,0.995-0.975l-0.021-11.631
		c0-0.808,0.137-1.599,0.408-2.352c0.271-0.758,0.644-1.44,1.107-2.028c0.462-0.587,1.021-1.062,1.66-1.411
		c1.07-0.588,2.426-0.713,3.688-0.216c0.533,0.212,1.007,0.445,1.402,0.69c0.114,0.077,0.218,0.119,0.313,0.129
		c0.146,0.018,0.428,0.074,0.747-0.21c0.143-0.126,0.279-0.282,0.408-0.464c0.132-0.188,0.243-0.381,0.33-0.569
		c0.098-0.211,0.147-0.405,0.147-0.578C426.056,119.035,425.869,118.738,425.503,118.462z"/>
</g>
<g>
	<path class="st13" d="M332.27,85.913V26.876h13.53v59.037H332.27z"/>
</g>
<circle class="st13" cx="339.035" cy="8.184" r="8.184"/>
<path d="M205.475,41.099c-0.351-0.139-0.709-0.256-1.068-0.347c-4.596-1.173-9.381,1.695-10.645,6.393
	c-0.164,0.608-0.266,1.232-0.302,1.855c-0.036,0.606,0.388,1.144,0.985,1.248c0.069,0.013,0.139,0.019,0.207,0.019
	c0.52,0,0.99-0.341,1.143-0.855c0.568-1.908,1.949-3.64,3.789-4.752h0.001c1.633-0.986,3.524-1.43,5.335-1.263
	c0.582,0.061,1.132-0.323,1.273-0.906C206.337,41.909,206.036,41.324,205.475,41.099z"/>
<path class="st13" d="M203.2,6.261c-1.378,1.055-8.48,6.335-5.456,15.629c2.471,7.596,10.525,12.013,17.592,9.526
	c1.472-0.518-10.899,2.452-12.921-6.378c-1.828-7.981,6.086-9.677,7.137-10.482c2.29-1.754,2.725-5.032,0.971-7.323
	C208.769,4.942,205.491,4.507,203.2,6.261z"/>
<path class="st13" d="M215.126,60.137c-5.989,2.268-12.328,1.887-17.737-0.555c-0.367-0.166-0.708,0.266-0.461,0.583
	c4.679,5.999,12.88,8.538,20.368,5.702c7.488-2.835,11.95-10.17,11.482-17.763c-0.025-0.402-0.566-0.499-0.731-0.132
	C225.611,53.385,221.114,57.869,215.126,60.137z"/>
<path d="M246.881,41.935c-2.292-10.533-9.094-19.486-18.661-24.562l-0.406-0.216l-6.811,10.599l0.51,0.245
	c6.761,3.255,11.549,9.304,13.136,16.597c1.367,6.283,0.201,12.731-3.285,18.156c-3.485,5.425-8.866,9.166-15.149,10.534
	c-6.286,1.365-12.731,0.2-18.156-3.284c-5.425-3.485-9.166-8.866-10.533-15.149c-1.588-7.294,0.253-14.785,5.05-20.555l0.361-0.435
	l-10.6-6.81l-0.279,0.364c-6.593,8.593-9.058,19.562-6.765,30.097c2.077,9.546,7.76,17.72,16.001,23.015
	c5.991,3.85,12.804,5.837,19.745,5.837c2.607,0,5.232-0.28,7.839-0.848c9.546-2.077,17.72-7.761,23.015-16.002
	S248.959,51.481,246.881,41.935z"/>
</svg>
