<svg width="343" height="104" viewBox="0 0 343 104" fill="none" xmlns="http://www.w3.org/2000/svg">
<path d="M41.6751 21.2042L30.8439 8.72276C30.4815 8.3054 30.5281 7.6712 30.9454 7.30873C31.3628 6.94634 31.997 6.99027 32.3594 7.40762C32.3869 7.43777 32.4143 7.47348 32.4363 7.50645L41.6751 21.2042Z" fill="#183B56"/>
<path d="M59.17 21.2042L68.4116 7.50644C68.7218 7.04521 69.3452 6.92438 69.8036 7.23464C70.2621 7.54489 70.386 8.16812 70.0754 8.62667C70.0535 8.65957 70.026 8.69527 70.0014 8.72276L59.17 21.2042Z" fill="#183B56"/>
<path d="M50.4225 21.2042L49.4232 1.36458C49.393 0.812723 49.8185 0.340481 50.3731 0.313025C50.925 0.285569 51.3972 0.711137 51.4246 1.26574C51.4246 1.29869 51.4246 1.33164 51.4246 1.36458L50.4225 21.2042Z" fill="#183B56"/>
<path d="M100.95 44.8382C100.73 44.6323 100.51 44.4208 100.285 44.2204L99.593 43.6328C98.654 42.8696 97.6798 42.142 96.6332 41.5188C95.593 40.89 94.5029 40.3327 93.3719 39.8549C92.2403 39.3799 91.063 39.0011 89.8576 38.7045C87.4467 38.1115 84.9206 37.8781 82.3868 37.9907C81.1181 38.0456 79.8494 38.1883 78.5892 38.4162C77.3317 38.6442 76.0799 38.9544 74.8612 39.3772C76.0167 38.8006 77.2277 38.3256 78.469 37.933C79.7096 37.5349 80.981 37.2219 82.2771 36.9968C84.863 36.541 87.5374 36.4312 90.2062 36.7332C91.5374 36.8842 92.8694 37.1258 94.1732 37.4827C95.4805 37.8424 96.7654 38.3037 98.0172 38.8528C98.8571 39.218 99.6732 39.638 100.472 40.0911L100.439 39.9016C98.3574 29.7045 91.4608 21.7807 83.2513 21.9399C73.5264 22.1267 67.4233 31.8213 66.5776 39.52C66.2701 42.3342 65.9159 45.2912 65.5123 47.0347C65.4793 47.7238 65.4656 48.4184 65.4711 49.1185C65.4849 50.5984 65.5837 52.0975 65.7512 53.5939C65.9159 55.0929 66.1438 56.5893 66.4266 58.0829C66.7121 59.571 67.0334 61.0619 67.4864 62.5198C66.7862 61.1607 66.2042 59.7357 65.655 58.2998C65.1087 56.8611 64.6173 55.3977 64.1807 53.9096C63.7441 52.4215 63.3707 50.9059 63.0825 49.3602C62.8958 48.3635 62.7447 47.3559 62.6432 46.3291C54.7111 45.725 59.947 67.4892 63.2252 71.8825C65.0977 74.389 67.0498 76.3408 69.109 77.6861C69.109 77.689 70.2594 80.0857 69.1804 84.5258C69.1365 84.6628 69.098 84.7999 69.0733 84.9454H69.0706L66.4924 93.7509C66.0037 103.336 85.0387 104.316 92.2073 101.167C95.0384 99.9229 95.4475 99.1539 95.7385 96.8506C96.0267 94.5501 95.9086 90.0468 93.2264 84.9482C92.9544 84.2868 92.5917 83.6802 92.1419 83.1966C92.1222 83.0954 92.073 82.9963 91.9852 82.9028C91.5241 82.4059 91.186 81.9863 90.9393 81.6236C90.9224 81.6236 90.9063 81.6236 90.8894 81.6264C88.9649 81.6925 87.0763 81.5358 85.239 81.2363C83.3996 80.9369 81.6094 80.4948 79.8607 79.9789C78.1091 79.4658 76.3983 78.867 74.6826 78.2962C76.4757 78.5429 78.268 78.8178 80.0554 78.9963C81.84 79.1797 83.6252 79.2817 85.3824 79.2374C87.1396 79.1966 88.8715 79.0125 90.5274 78.6449C91.8727 78.3426 93.166 77.9167 94.3763 77.3677C94.997 76.201 95.4117 74.5921 96.1996 72.6866C98.24 67.7639 101.018 59.5683 101.081 46.4388C101.084 45.9337 101.07 45.4312 101.049 44.9288L100.95 44.8382Z" fill="#183B56"/>
<path d="M38.8417 46.3291C38.7402 47.3559 38.5864 48.3635 38.4024 49.3602C38.1142 50.9059 37.7408 52.4215 37.3015 53.9096C36.8677 55.3977 36.3735 56.8611 35.8299 58.2998C35.278 59.7357 34.6987 61.1607 33.9958 62.5198C34.4488 61.0619 34.7701 59.571 35.0583 58.0829C35.3412 56.5893 35.5663 55.0929 35.731 53.5939C35.8985 52.0975 35.9974 50.5984 36.0111 49.1185C36.0166 48.4184 36.0056 47.7238 35.9699 47.0347C35.569 45.2912 35.2149 42.3342 34.9046 39.52C34.0617 31.8213 27.9555 22.124 18.2334 21.9399C10.0214 21.7807 3.12448 29.7045 1.04607 39.9016L1.01313 40.0911C1.81209 39.638 2.62753 39.218 3.46768 38.8528C4.71692 38.3037 6.00185 37.8424 7.30871 37.4827C8.61563 37.1258 9.94728 36.8842 11.2789 36.7332C13.9449 36.4312 16.6217 36.541 19.2081 36.9968C20.5013 37.2219 21.7752 37.5349 23.0135 37.933C24.2545 38.3256 25.468 38.8006 26.6239 39.3772C25.4048 38.9544 24.1529 38.6442 22.8927 38.4162C21.6352 38.1883 20.364 38.0456 19.0983 37.9907C16.5641 37.8781 14.0355 38.1115 11.6248 38.7045C10.4222 39.0011 9.24442 39.3799 8.11048 39.8549C6.97928 40.3327 5.89203 40.89 4.85145 41.5188C3.80538 42.142 2.82796 42.8696 1.89172 43.6328L1.19983 44.2204C0.971943 44.4208 0.755045 44.6323 0.532652 44.8382L0.433811 44.9288C0.414592 45.4312 0.400863 45.9337 0.403609 46.4388C0.466757 59.5683 3.24529 67.7639 5.28251 72.6866C6.07323 74.5921 6.48782 76.201 7.10833 77.3677C8.31909 77.9167 9.60956 78.3426 10.9577 78.6449C12.6132 79.0125 14.343 79.1966 16.1001 79.2374C17.86 79.2817 19.6446 79.1797 21.4293 78.9963C23.2167 78.8178 25.0067 78.5429 26.8024 78.2962C25.0836 78.867 23.3759 79.4658 21.6242 79.9789C19.8725 80.4948 18.0852 80.9369 16.2456 81.2363C14.4061 81.5358 12.5171 81.6925 10.5924 81.6264C10.576 81.6236 10.5623 81.6236 10.5458 81.6236C10.2987 81.9863 9.95825 82.4059 9.49696 82.9028C9.4091 82.9963 9.36243 83.0954 9.34324 83.1966C8.89017 83.6802 8.52777 84.2868 8.25597 84.9482C5.57628 90.0468 5.45822 94.5501 5.74651 96.8506C6.0348 99.1539 6.44663 99.9229 9.27457 101.167C16.4433 104.316 35.4784 103.336 34.9897 93.7509L32.4116 84.9454C32.3841 84.7999 32.3484 84.6628 32.3045 84.5258C31.2255 80.0857 32.3759 77.689 32.3759 77.6861C34.4351 76.3408 36.3872 74.389 38.2597 71.8825C41.5379 67.4892 46.7738 45.725 38.8417 46.3291Z" fill="#183B56"/>
<path d="M128.949 31.3628L132.617 30.7039C134.308 30.3991 136.082 31.0279 137.074 32.4336C138.49 34.4352 140.837 35.4373 144.121 35.4373C147.529 35.4373 149.23 34.5312 149.23 32.7192C149.23 31.7692 148.838 31.0333 148.05 30.5034C147.262 29.9763 145.857 29.5068 143.83 29.0977C136.087 27.6151 131.118 25.6767 128.919 23.2826C126.722 20.8885 125.622 18.0742 125.622 14.8372C125.622 10.6748 127.2 7.21538 130.36 4.45334C133.518 1.69127 138.062 0.312988 143.992 0.312988C150.208 0.312988 154.967 2.03722 158.267 5.49117C160.551 7.88254 159.478 11.8527 156.312 12.8109L153.813 13.5687C152.182 14.0601 150.392 13.5962 149.256 12.325C147.938 10.8478 146.021 10.112 143.506 10.112C140.552 10.112 139.077 11.029 139.077 12.8603C139.077 13.6812 139.41 14.3155 140.08 14.7685C140.747 15.2215 142.04 15.6526 143.959 16.0617C149.244 17.1791 152.995 18.1676 155.219 19.0242C157.44 19.8863 159.293 21.3552 160.779 23.4391C162.267 25.5202 163.008 27.9748 163.008 30.8C163.008 35.2671 161.199 38.8857 157.575 41.6588C153.953 44.4318 149.198 45.8183 143.314 45.8183C135.2 45.8183 129.43 43.2677 126.001 38.1719C124.224 35.5306 125.816 31.9257 128.949 31.3628Z" fill="#183B56"/>
<path d="M200.829 45.1375H196.029C194.289 45.1375 192.704 44.1216 191.98 42.5374L185.539 28.4553L180.959 34.9514V40.6841C180.959 43.1442 178.965 45.1375 176.505 45.1375H172.637C170.177 45.1375 168.183 43.1442 168.183 40.6841V5.44449C168.183 2.98444 170.177 0.99115 172.637 0.99115H176.505C178.965 0.99115 180.959 2.98444 180.959 5.44449V19.2466L191.812 2.97346C192.638 1.7352 194.028 0.99115 195.516 0.99115H196.828C200.42 0.99115 202.533 5.01892 200.496 7.97321L194.165 17.1489L204.82 38.7128C206.284 41.6726 204.132 45.1375 200.829 45.1375Z" fill="#183B56"/>
<path d="M225.17 5.44448V40.6868C225.17 43.1441 223.177 45.1402 220.717 45.1402H216.071C213.614 45.1402 211.618 43.1441 211.618 40.6868V5.44448C211.618 2.98444 213.614 0.99115 216.071 0.99115H220.717C223.177 0.99115 225.17 2.98444 225.17 5.44448Z" fill="#183B56"/>
<path d="M150.491 83.0651H138.457V95.1397C138.457 97.5998 136.463 99.5931 134.003 99.5931H129.712C127.255 99.5931 125.259 97.5998 125.259 95.1397V59.8977C125.259 57.4377 127.255 55.4443 129.712 55.4443H152.729C155.189 55.4443 157.182 57.4377 157.182 59.8977V63.5987C157.182 64.9001 156.128 65.9572 154.823 65.9572H138.457V73.1371H150.491C151.792 73.1371 152.849 74.1914 152.849 75.4952V80.7063C152.849 82.008 151.792 83.0651 150.491 83.0651Z" fill="#183B56"/>
<path d="M171.61 81.2531H178.751L175.179 68.4474L171.61 81.2531ZM182.702 96.367L181.131 90.8923H169.306L167.615 96.4358C167.047 98.3111 165.317 99.5931 163.357 99.5931H161.69C158.692 99.5931 156.55 96.691 157.434 93.8247L168.313 58.5853C168.889 56.7183 170.613 55.4443 172.568 55.4443H180.341C182.285 55.4443 184.006 56.7073 184.588 58.5661L195.642 93.8057C196.543 96.6748 194.398 99.5931 191.392 99.5931H186.982C184.997 99.5931 183.251 98.2752 182.702 96.367Z" fill="#183B56"/>
<path d="M249.518 59.8977V95.1397C249.518 97.5998 247.525 99.5931 245.065 99.5931H241.392C238.932 99.5931 236.938 97.5998 236.938 95.1397V68.0246L229.635 96.2545C229.127 98.2204 227.353 99.5931 225.324 99.5931H223.581C221.568 99.5931 219.806 98.2401 219.281 96.296L211.679 68.0246V95.1397C211.679 97.5998 209.685 99.5931 207.225 99.5931H205.976C203.516 99.5931 201.523 97.5998 201.523 95.1397V59.8977C201.523 57.4377 203.516 55.4443 205.976 55.4443H215.83C217.837 55.4443 219.597 56.787 220.127 58.7253L225.635 78.8915L230.878 58.7747C231.389 56.8144 233.16 55.4443 235.189 55.4443H245.065C247.525 55.4443 249.518 57.4377 249.518 59.8977Z" fill="#183B56"/>
<path d="M270.766 59.8977V95.1397C270.766 97.5998 268.773 99.5931 266.313 99.5931H261.67C259.21 99.5931 257.217 97.5998 257.217 95.1397V59.8977C257.217 57.4377 259.21 55.4443 261.67 55.4443H266.313C268.773 55.4443 270.766 57.4377 270.766 59.8977Z" fill="#183B56"/>
<path d="M309.416 91.1151V95.1397C309.416 97.5998 307.423 99.5931 304.963 99.5931H282.919C280.459 99.5931 278.465 97.5998 278.465 95.1397V59.8977C278.465 57.4404 280.459 55.4443 282.919 55.4443H287.564C290.024 55.4443 292.017 57.4404 292.017 59.8977V88.7563H307.057C308.362 88.7563 309.416 89.8134 309.416 91.1151Z" fill="#183B56"/>
<path d="M341.916 62.0228L331.669 80.899V95.137C331.669 97.5971 329.673 99.5904 327.216 99.5904H322.957C320.5 99.5904 318.504 97.5971 318.504 95.137V80.899L307.56 62.1436C305.827 59.1729 307.969 55.4443 311.407 55.4443H315.805C317.452 55.4443 318.965 56.3532 319.736 57.8083L326.219 69.9987L332.397 57.877C333.157 56.3834 334.692 55.4443 336.367 55.4443H338.004C341.377 55.4443 343.528 59.0548 341.916 62.0228Z" fill="#183B56"/>
</svg>
